<svg xmlns="http://www.w3.org/2000/svg" viewBox="0 0 145.84 102.31"><defs><style>.cls-1,.cls-2{fill:#fff;}.cls-1,.cls-2,.cls-3,.cls-4{stroke:#55bdff;stroke-linejoin:round;}.cls-1,.cls-3{stroke-width:2px;}.cls-3,.cls-4{fill:none;}</style></defs><g id="Layer_2" data-name="Layer 2"><g id="Layer_1-2" data-name="Layer 1"><path class="cls-1" d="M128.58,80.45s7.4-39-12.09-71.81A15.74,15.74,0,0,0,103,1H91.38v9.46H102a8.7,8.7,0,0,1,8.7,8.7V39.67s-.8,29.83-34.21,29.94H1V80.45Z"/><path class="cls-1" d="M63.63,65.32S41.78,66.79,39,40.72h-12A26.07,26.07,0,0,0,1,66.79V80.45H63.63Z"/><circle class="cls-1" cx="123.09" cy="83.38" r="17.93"/><circle class="cls-2" cx="123.09" cy="83.38" r="8.7"/><circle class="cls-1" cx="22.89" cy="83.38" r="17.93"/><circle class="cls-2" cx="22.89" cy="83.38" r="8.7"/><path class="cls-3" d="M39,30.14H63.63a0,0,0,0,1,0,0V40.65a0,0,0,0,1,0,0H39a5.25,5.25,0,0,1-5.25-5.25v0A5.25,5.25,0,0,1,39,30.14Z" transform="translate(97.42 70.78) rotate(180)"/><path class="cls-4" d="M49.93,61.35V49.09a8.44,8.44,0,0,1,8.45-8.44h0"/><line class="cls-3" x1="91.38" y1="5.83" x2="80.57" y2="5.83"/><path class="cls-4" d="M139.07,40.72v14.7c-5.49,0-9.93-3.29-9.93-7.35S133.58,40.72,139.07,40.72Z"/><path class="cls-2" d="M123.27,62.58a22.07,22.07,0,0,1,22.07,22.07H101.2A22.07,22.07,0,0,1,123.27,62.58Z"/><path class="cls-2" d="M23.07,62.58A22.07,22.07,0,0,1,45.14,84.65H1A22.07,22.07,0,0,1,23.07,62.58Z"/></g></g></svg>