<svg xmlns="http://www.w3.org/2000/svg" viewBox="0 0 204.18 95.45"><defs><style>.cls-1,.cls-4{fill:none;}.cls-1,.cls-2,.cls-3,.cls-4{stroke:#55bdff;stroke-linejoin:round;}.cls-1,.cls-2{stroke-width:2px;}.cls-2,.cls-3{fill:#fff;}</style></defs><g id="Layer_2" data-name="Layer 2"><g id="Layer_1-2" data-name="Layer 1"><path class="cls-1" d="M19.62,73.7q68.64-.21,137.27-.23h38.52A7.62,7.62,0,0,0,203,66.78a25.73,25.73,0,0,0-5.86-20c-6.58-7.66-19.62-10.51-28.69-14.36a56.43,56.43,0,0,1-6.19-2.93C143.72,18.76,125.69,4.06,103.3,4c-15.65,0-31.39-1.25-47-1.87C46.9,1.54,37.46,1.41,28.07,1c-3-.13-7.82,1-5.76,5.28L24,9.84C23.89,9.57,14.41,20,13.9,20.77A43.09,43.09,0,0,0,6.5,42.51a6.31,6.31,0,0,1-.42,2.41,7.55,7.55,0,0,1-1.34,1.71C.67,51.1,1,56.59,1,62.21A11.84,11.84,0,0,0,8.59,72.83a25.55,25.55,0,0,0,8.19.88Z"/><circle class="cls-2" cx="44.98" cy="75.5" r="18.95"/><circle class="cls-3" cx="44.98" cy="75.5" r="8.46"/><circle class="cls-2" cx="161.53" cy="75.5" r="18.95"/><circle class="cls-3" cx="161.53" cy="75.5" r="8.46"/><path class="cls-4" d="M199.85,50.62s-17.91,2.51-19.37-13.21"/><path class="cls-4" d="M142.58,28.46s-25.49-23.69-100-18.28c0,0-18.61,6.43-20,18.28Z"/><line class="cls-4" x1="40.27" y1="37.09" x2="28.42" y2="37.09"/><line class="cls-4" x1="89" y1="37.09" x2="100.17" y2="37.09"/><polyline class="cls-4" points="82.62 73.47 82.62 28.46 82.62 10.08"/><path class="cls-4" d="M22.67,28.46s-2.89,20.83,17.6,28.68"/><path class="cls-4" d="M142.58,28.46s5.24,1.59,10.49,30.08"/></g></g></svg>