<svg xmlns="http://www.w3.org/2000/svg" xmlns:xlink="http://www.w3.org/1999/xlink" width="48.004" height="63.229" viewBox="0 0 48.004 63.229">
  <defs>
    <linearGradient id="linear-gradient" x1="0.018" y1="0.79" x2="1.175" y2="0.234" gradientUnits="objectBoundingBox">
      <stop offset="0" stop-color="#55bdff"/>
      <stop offset="1" stop-color="#1eefb3"/>
    </linearGradient>
  </defs>
  <path id="EV_Route_Optimization" data-name="EV Route Optimization" d="M2931.034,494.039h0a66.061,66.061,0,0,1-9.7-9.138,47.643,47.643,0,0,1-6.665-9.751,26.319,26.319,0,0,1-3.029-11.718,19.392,19.392,0,1,1,38.783,0,26.293,26.293,0,0,1-3.028,11.713,47.687,47.687,0,0,1-6.666,9.751,65.9,65.9,0,0,1-9.7,9.143Zm3.711-41.3h0l-11.026,13.316h6.7l-3.172,10.5,11.29-13.5h-6.97l3.177-10.317Zm21.9,48.535a3,3,0,1,1-3,3A3,3,0,0,1,2956.644,501.269Zm-5,3a4.933,4.933,0,0,1,.192-1.3h-21.37a1.823,1.823,0,0,1-.388-3.605l25.445-5.56a4.824,4.824,0,0,0-1.029-9.537h-8.351l-3,3H2954.5a1.824,1.824,0,0,1,.389,3.606l-25.446,5.56a4.824,4.824,0,0,0,1.029,9.536h21.5A4.945,4.945,0,0,1,2951.645,504.269Z" transform="translate(-2911.64 -444.04)" fill="url(#linear-gradient)"/>
</svg>
