<svg xmlns="http://www.w3.org/2000/svg" xmlns:xlink="http://www.w3.org/1999/xlink" width="52" height="52" viewBox="0 0 52 52">
  <defs>
    <linearGradient id="linear-gradient" x1="0.018" y1="0.79" x2="1.175" y2="0.234" gradientUnits="objectBoundingBox">
      <stop offset="0" stop-color="#55bdff"/>
      <stop offset="1" stop-color="#1eefb3"/>
    </linearGradient>
  </defs>
  <path id="EV_acquisition_strategy" data-name="EV acquisition strategy" d="M2873.075,313.064H2871a9.016,9.016,0,0,0-8.94-8h-8a9.016,9.016,0,0,0-8.94,8h-2.06a1,1,0,0,0-1,1v2h1.31a5.976,5.976,0,0,0-.81,3v4a2.006,2.006,0,0,0,2,2v2a1,1,0,0,0,1,1h3.218a1,1,0,0,0,1-1v-2h16.564v2a1,1,0,0,0,1,1h3.218a1,1,0,0,0,1-1v-2a2.006,2.006,0,0,0,2-2v-4a5.976,5.976,0,0,0-.81-3h1.31v-2.011A.989.989,0,0,0,2873.075,313.064Zm-25.011,8.5a1.5,1.5,0,1,1,1.5-1.5A1.5,1.5,0,0,1,2848.064,321.564Zm16-.5h-12v-2h12Zm-16.361-8a6.521,6.521,0,0,1,6.467-5.787h7.788a6.521,6.521,0,0,1,6.467,5.787Zm20.361,8.5a1.5,1.5,0,1,1,1.5-1.5A1.5,1.5,0,0,1,2868.064,321.564Zm20.5-45.5h-27a5.51,5.51,0,0,0-5.5,5.5v20.5h3v-20.5a2.5,2.5,0,0,1,2.5-2.5h27a2.5,2.5,0,0,1,2.5,2.5v25.5h-2v-17.5a3.5,3.5,0,0,0-3.5-3.5h-21a3.5,3.5,0,0,0-3.5,3.5v12.5h1c.339,0,.674.017,1.005.046v-2.045a4,4,0,0,1,4-4h15.995a4,4,0,0,1,4,4v7H2872.44a25.485,25.485,0,0,1,1.2,3.011c2.06.154,2.926,1.881,2.926,3.98v5.009h0v3h5.282v2a1,1,0,0,0,1,1h5.218a1,1,0,0,0,1-1v-2a2,2,0,0,0,2-2v-1h2a1,1,0,0,0,1-1v-36.5A5.51,5.51,0,0,0,2888.564,276.064Zm-1.5,43h-4.5a1.5,1.5,0,0,1,0-3h4.5Z" transform="translate(-2842.064 -276.064)" fill="url(#linear-gradient)"/>
</svg>
