<svg xmlns="http://www.w3.org/2000/svg" viewBox="0 0 255.49 125.61"><defs><style>.cls-1,.cls-4{fill:none;}.cls-1,.cls-2,.cls-3,.cls-4{stroke:#55bdff;stroke-miterlimit:10;}.cls-1,.cls-2{stroke-width:2px;}.cls-2,.cls-3{fill:#fff;}</style></defs><g id="Layer_2" data-name="Layer 2"><g id="Layer_1-2" data-name="Layer 1"><path class="cls-1" d="M251,100.23l3.48-6.09V68.31a6.4,6.4,0,0,0-3.28-5.6L214.88,42.35,182.07,8.09A23,23,0,0,0,165.46,1L16.77,1.85A15.77,15.77,0,0,0,1,17.62V88.43a12.66,12.66,0,0,0,12.66,12.66Z"/><circle class="cls-2" cx="43.73" cy="101.98" r="22.63"/><circle class="cls-3" cx="43.73" cy="101.98" r="13.44"/><circle class="cls-2" cx="210.22" cy="101.98" r="22.63"/><circle class="cls-3" cx="210.22" cy="101.98" r="13.44"/><path class="cls-4" d="M198.48,82.62V38.72L179.2,15.51s-3-7.84-27.13-7H26.82A10.55,10.55,0,0,0,16.27,19.09v81.14"/><line class="cls-4" x1="16.27" y1="38.72" x2="198.48" y2="38.72"/><line class="cls-4" x1="131.76" y1="8.54" x2="131.76" y2="100.23"/><line class="cls-4" x1="74.31" y1="8.54" x2="74.31" y2="100.23"/><line class="cls-4" x1="159.32" y1="58.16" x2="145.98" y2="58.16"/><path class="cls-4" d="M254.49,73.46h-1.41a2.65,2.65,0,0,0-2.65,2.65v9.77a2.65,2.65,0,0,0,2.65,2.65h1.41"/></g></g></svg>